HIERARCHY
ROOT hip
{
	OFFSET 0.000000 0.000000 0.000000 
	CHANNELS 6 Xposition Yposition Zposition Xrotation Zrotation Yrotation
	JOINT abdomen
	{
		OFFSET 0.000000 3.402643 0.000000 
		CHANNELS 3 Xrotation Zrotation Yrotation
		JOINT chest
		{
			OFFSET 0.000000 8.438565 -0.680529 
			CHANNELS 3 Xrotation Zrotation Yrotation
			JOINT neck
			{
				OFFSET 0.000000 10.207942 -0.272212 
				CHANNELS 3 Xrotation Zrotation Yrotation
				JOINT head
				{
					OFFSET 0.000000 3.130431 0.000000 
					CHANNELS 3 Xrotation Zrotation Yrotation
					End Site
					{
						OFFSET 0.000000 3.130435 0.000000 
					}
				}
			}
			JOINT lCollar
			{
				OFFSET 3.470700 6.669187 -0.816635 
				CHANNELS 3 Yrotation Zrotation Xrotation
				JOINT lShldr
				{
					OFFSET 3.198488 0.000000 0.000000 
					CHANNELS 3 Zrotation Yrotation Xrotation
					JOINT lForeArm
					{
						OFFSET 10.139888 0.000000 0.000000 
						CHANNELS 3 Yrotation Zrotation Xrotation
						JOINT lHand
						{
							OFFSET 8.370511 0.000000 0.000000 
							CHANNELS 3 Zrotation Yrotation Xrotation
							End Site
							{
								OFFSET 4.083176 0.000000 0.000000 
							}
						}
					}
				}
			}
			JOINT rCollar
			{
				OFFSET -3.470700 6.669187 -0.816635 
				CHANNELS 3 Yrotation Zrotation Xrotation
				JOINT rShldr
				{
					OFFSET -3.198488 0.000000 0.000000 
					CHANNELS 3 Zrotation Yrotation Xrotation
					JOINT rForeArm
					{
						OFFSET -10.139888 0.000000 0.000000 
						CHANNELS 3 Yrotation Zrotation Xrotation
						JOINT rHand
						{
							OFFSET -8.370511 0.000000 0.000000 
							CHANNELS 3 Zrotation Yrotation Xrotation
							End Site
							{
								OFFSET -4.083176 0.000000 0.000000 
							}
						}
					}
				}
			}
		}
	}
	JOINT lThigh
	{
		OFFSET 5.308129 -1.633274 1.361059 
		CHANNELS 3 Xrotation Zrotation Yrotation
		JOINT lShin
		{
			OFFSET -2.041588 -20.007561 0.000000 
			CHANNELS 3 Xrotation Zrotation Yrotation
			JOINT lFoot
			{
				OFFSET 0.000000 -19.190928 -1.224953 
				CHANNELS 3 Xrotation Yrotation Zrotation
				End Site
				{
					OFFSET 0.000000 -2.449906 4.627600 
				}
			}
		}
	}
	JOINT rThigh
	{
		OFFSET -5.308129 -1.633274 1.361059 
		CHANNELS 3 Xrotation Zrotation Yrotation
		JOINT rShin
		{
			OFFSET 2.041588 -20.007561 0.000000 
			CHANNELS 3 Xrotation Zrotation Yrotation
			JOINT rFoot
			{
				OFFSET 0.000000 -19.190928 -1.224953 
				CHANNELS 3 Xrotation Yrotation Zrotation
				End Site
				{
					OFFSET 0.000000 -2.449906 4.627600 
				}
			}
		}
	}
}
MOTION
Frames: 11
Frame Time: 0.033333
-1.192075 52.923973 -1.093001 0.000000 1.572266 -166.123047 10.097656 -3.701171 3.769531 -1.542969 6.552733 4.541015 51.064453 8.115234 2.472081 -33.095707 18.623045 -46.533203 17.324219 30.000000 -5.976563 -116.933586 8.730469 26.241716 -46.884769 -1.962891 -1.855469 23.115234 59.570316 23.162718 -17.099609 -30.000000 -5.493163 108.476563 -11.953125 5.417901 83.408203 0.390625 -2.861325 -50.781246 -41.767582 59.622402 -1.545205 21.197552 31.388357 12.813898 -4.704947 -1.261900 9.332856 5.294951 -16.282785 10.767494 3.054160 -26.212671 -0.005268 5.343217 0.030273 1.137552 -10.687024 1.971414 
-1.253127 52.947617 -1.078673 0.166016 1.572266 -166.123047 10.097656 -3.525390 3.798828 -1.728516 6.396484 4.648437 51.064453 8.115234 2.472081 -33.037109 18.955080 -46.442139 17.119141 30.000000 -5.917969 -116.953125 9.140625 25.841398 -47.060547 -2.070313 -1.894178 23.447264 59.707035 23.701174 -17.509766 -30.000000 -5.834960 108.847656 -12.548828 5.173659 84.111328 0.361328 -2.880860 -50.029297 -40.742184 58.085938 -1.331483 21.204372 31.950174 12.969860 -4.704984 -1.274353 9.192630 5.332015 -16.080479 10.910884 2.847208 -25.702662 -0.182186 5.356292 -0.160472 1.280875 -10.292222 2.046895 
-1.320128 52.955494 -1.028631 0.341797 1.572264 -166.288788 10.273437 -3.291015 3.652344 -1.914062 5.898438 4.649441 51.064453 8.115234 2.472081 -32.958981 19.277344 -46.100288 17.158203 30.000000 -5.991211 -116.787109 9.501953 25.693359 -47.236328 -2.070312 -1.894531 23.300783 59.736328 23.426407 -17.744141 -30.000000 -5.834960 109.218750 -12.958984 5.078125 84.990234 0.332031 -2.890679 -49.521484 -39.550781 56.487923 -1.331489 21.204372 31.950174 12.969860 -4.704986 -1.274353 9.389220 5.492313 -16.196558 10.934487 2.869133 -26.062893 -0.006554 5.352803 0.020354 1.279697 -10.005116 1.954997 
-1.346616 52.947617 -0.997117 0.341797 1.572264 -166.288788 10.263672 -3.125000 3.681108 -2.099609 5.722657 4.571287 51.064453 8.115234 2.472081 -33.486328 19.550781 -45.934231 17.158203 30.000000 -5.991211 -116.796875 9.511719 25.498047 -47.060547 -2.070313 -1.894178 23.525391 59.912109 24.041655 -17.744141 -30.000000 -5.834960 109.228516 -13.125001 5.068360 84.990234 0.332031 -2.890679 -49.785156 -39.355469 55.937496 -1.331486 21.204374 31.950174 12.969860 -4.704984 -1.274353 9.706182 5.357079 -16.486300 10.934486 2.869134 -26.062893 -0.006181 5.352626 0.010597 1.488849 -10.131807 1.924660 
-1.324641 52.947617 -0.985286 0.341797 1.572264 -166.464569 10.263672 -3.183594 3.847114 -2.089844 5.898438 4.628906 51.064453 8.115234 2.472081 -34.189453 19.843750 -45.927731 17.373047 30.000000 -6.049805 -116.806641 9.521484 25.302734 -46.884769 -2.080078 -1.884766 24.160154 59.941406 24.677732 -17.441406 -30.000000 -5.668943 109.238281 -13.300781 4.900099 85.166016 0.322266 -2.900446 -50.058594 -39.003906 55.237999 -1.331487 21.204374 31.950174 12.969861 -4.704982 -1.274352 10.119601 5.574989 -16.789316 10.940812 2.886387 -26.227036 -0.006173 5.343216 0.030281 1.274940 -9.856413 1.643996 
-1.299878 52.955494 -0.961995 0.527344 1.562498 -166.620819 10.449219 -3.417969 3.974609 -1.914063 6.064454 4.687500 51.064453 8.115234 2.472081 -35.107418 20.000002 -45.924393 17.373047 30.000000 -6.049805 -116.816414 9.521484 25.283205 -46.708988 -1.962891 -1.845703 24.521484 60.224606 24.804686 -17.441406 -30.000000 -5.668943 109.072258 -13.457030 4.628906 85.341797 0.371094 -3.115297 -50.439453 -38.525387 54.726563 -1.114667 21.443291 32.006584 12.813891 -4.704964 -1.261901 10.516162 5.651503 -16.573336 10.940811 2.886390 -26.227036 -0.006173 5.343217 0.030281 1.438856 -9.913885 1.823855 
-1.254285 52.955494 -0.955306 0.527344 1.562498 -166.806366 10.449219 -3.417969 3.974609 -1.914063 6.230469 4.746094 51.064453 8.115234 2.472081 -36.210938 20.175781 -46.064457 17.158203 30.000000 -5.991211 -117.167976 9.580077 25.156248 -46.708984 -2.080078 -1.874645 24.160154 59.941406 24.677732 -17.392578 -30.000000 -5.591053 108.896484 -13.623046 4.519185 85.517578 0.371094 -3.115234 -50.888672 -38.173828 54.072269 -1.126375 21.459101 31.829006 12.813892 -4.704963 -1.261901 10.178146 5.819725 -16.854071 11.070730 2.751677 -26.062294 -0.006548 5.352981 0.030107 1.496103 -9.740423 1.538353 
-1.216619 52.955494 -0.929717 0.527344 1.562498 -166.806366 10.449220 -3.476563 4.140032 -1.728516 6.396484 4.824219 51.064453 8.115234 2.472081 -37.109375 20.488283 -46.031738 16.865232 29.999998 -5.712891 -117.158211 9.365235 25.351563 -46.884769 -2.080078 -1.884766 23.730467 59.667965 24.482420 -17.109377 -30.000000 -5.410157 108.896484 -13.828125 4.382431 85.683594 0.302734 -2.910208 -50.976563 -38.105465 53.339844 -1.126375 21.459101 31.829006 12.813892 -4.704963 -1.261901 10.178145 5.819725 -16.854071 11.126500 2.916230 -26.029036 -0.180987 5.398625 0.004559 1.469390 -9.646237 1.414209 
-1.160866 52.947617 -0.905887 0.703125 1.572266 -166.972382 10.625000 -3.701172 4.266947 -1.718750 6.562500 4.697266 51.064453 8.115234 2.472081 -38.212891 20.664064 -46.090305 16.904299 30.000000 -5.786133 -117.343758 9.218750 25.107424 -47.060547 -2.070313 -1.894178 23.261717 59.785156 23.847654 -17.109377 -30.000000 -5.410157 108.906242 -13.652343 4.169921 85.517578 0.312500 -2.910156 -51.318356 -37.880859 53.460800 -0.999638 21.351423 31.671724 12.810083 -4.654983 -1.285645 10.040595 6.013902 -16.973969 11.126500 2.916235 -26.029037 -0.180986 5.398624 0.004559 1.477822 -9.628686 1.400761 
-1.120250 52.947617 -0.885162 0.703125 1.572266 -167.148178 10.625000 -3.759766 4.432953 -1.708984 6.728516 4.755858 51.064453 8.115234 2.472081 -39.140625 20.791018 -46.187939 16.699219 30.000000 -5.722657 -117.333992 9.023437 25.312498 -47.060547 -2.070313 -1.894178 22.597654 59.560547 23.164063 -17.207033 -30.000000 -5.576171 109.267578 -13.701171 4.033203 85.341797 0.312500 -2.900444 -51.591797 -37.392578 53.822197 -0.999640 21.351423 31.671724 12.810084 -4.654980 -1.285645 9.961538 5.794492 -17.065006 11.081602 2.976843 -26.032459 -0.006566 5.310740 -0.144756 1.430012 -9.343408 1.178897 
-1.091007 52.947617 -0.854937 0.703125 1.572266 -167.323959 10.625000 -3.925782 4.403629 -1.523438 6.884765 4.853515 51.064453 8.115234 2.472081 -39.892582 20.898438 -46.142578 16.865232 29.999998 -5.712891 -117.304688 8.798827 25.908203 -47.060547 -1.953125 -1.864902 22.695313 59.716793 23.104136 -17.275391 -30.000000 -5.654298 109.091797 -13.496094 3.896484 85.166016 0.322266 -2.900446 -51.914066 -37.177738 53.955074 -0.978659 21.529312 31.687132 12.810083 -4.654984 -1.285645 9.882664 6.032701 -16.947859 11.097711 2.994635 -26.195675 -0.006028 5.311272 -0.115499 1.282692 -9.259337 1.240279 
